#!OML:ASF H:\Pregnant\Project 1\Capture day 1\Session 1\femalepreg.ASF
:FULLY-SPECIFIED
:DEGREES
988
root -7.48668 15.4062 28.9483 21.0261 -13.8638 0.528761
lowerback -14.8408 -2.7524 -7.30732
upperback -4.73066 -2.61313 0.0485922
thorax 3.59816 -1.30968 3.70902
lowerneck -16.918 -10.0041 -7.3038
upperneck 17.6286 -13.9618 9.1018
head 9.5275 -6.10809 2.358
rclavicle -1.1281e-014 -1.27222e-014
rhumerus -38.258 8.327 -84.5665
rradius 33.1195
rwrist -8.0769
rhand -13.0844 -15.1827
rfingers 7.12502
rthumb 13.0119 -44.7569
lclavicle -1.1281e-014 -1.27222e-014
lhumerus -29.0819 -10.5452 83.598
lradius 27.0222
lwrist 40.0917
lhand -29.9008 -3.30957
lfingers 7.12502
lthumb -3.22165 26.6458
rfemur -51.8885 15.9079 17.31
rtibia 37.7141
rfoot -2.51522 -17.8353
rtoes -9.55291
lfemur -29.0399 -5.39586 -26.0185
ltibia 29.976
lfoot -15.7021 1.67822
ltoes -19.3981
989
root -7.48853 15.3868 29.0182 20.9465 -14.1308 0.269971
lowerback -14.7771 -2.55429 -6.59272
upperback -4.72221 -2.46169 0.0689952
thorax 3.53239 -1.23333 3.35823
lowerneck -17.0215 -9.85211 -7.06929
upperneck 17.3751 -13.7247 8.89186
head 9.40219 -6.00765 2.2879
rclavicle -2.25124e-014 6.36111e-015
rhumerus -37.7033 8.28156 -84.4724
rradius 33.1285
rwrist -8.13124
rhand -12.9795 -15.1869
rfingers 7.12502
rthumb 13.113 -44.7547
lclavicle -2.25124e-014 6.36111e-015
lhumerus -29.3666 -9.36737 83.3615
lradius 25.0726
lwrist 39.0146
lhand -30.2099 -2.65533
lfingers 7.12502
lthumb -3.5202 27.2953
rfemur -51.6727 16.0247 17.6917
rtibia 38.0069
rfoot -2.56562 -17.2807
rtoes -9.07523
lfemur -29.3499 -5.05053 -25.9226
ltibia 31.3323
lfoot -15.9918 1.67284
ltoes -20.0956
990
root -7.48961 15.3683 29.0869 20.8573 -14.4368 0.00787842
lowerback -14.6934 -2.35498 -5.88991
upperback -4.69506 -2.30677 0.0967013
thorax 3.47883 -1.15621 3.02187
lowerneck -17.1297 -9.67409 -6.81883
upperneck 17.07 -13.4532 8.68905
head 9.25814 -5.89056 2.22342
rclavicle -7.8023e-015 -5.1684e-015
rhumerus -37.1093 8.22242 -84.3633
rradius 33.1548
rwrist -8.06819
rhand -12.9602 -15.1884
rfingers 7.12502
rthumb 13.1316 -44.7549
lclavicle -7.8023e-015 -5.1684e-015
lhumerus -29.6698 -7.97049 83.0216
lradius 23.2306
lwrist 37.7181
lhand -30.5601 -1.91275
lfingers 7.12502
lthumb -3.85833 28.0321
rfemur -51.4426 16.175 18.0647
rtibia 38.3021
rfoot -2.67132 -16.8195
rtoes -8.74109
lfemur -29.6973 -4.63128 -25.8407
ltibia 32.7729
lfoot -16.2248 1.59946
ltoes -20.8526
991
root -7.48988 15.3515 29.1539 20.7703 -14.7762 -0.23173
lowerback -14.597 -2.16164 -5.22534
upperback -4.66103 -2.15358 0.126571
thorax 3.42986 -1.08028 2.70847
lowerneck -17.2189 -9.47003 -6.55872
upperneck 16.7105 -13.1474 8.49443
head 9.09122 -5.75807 2.1666
rclavicle 1.90336e-014 -1.70955e-014
rhumerus -36.5031 8.15493 -84.2432
rradius 33.2154
rwrist -7.90749
rhand -13.0286 -15.2131
rfingers 7.12502
rthumb 13.0656 -44.7838
lclavicle 1.90336e-014 -1.70955e-014
lhumerus -30.0139 -6.36971 82.576
lradius 21.5256
lwrist 36.2063
lhand -30.95 -1.12469
lfingers 7.12502
lthumb -4.23483 28.813
rfemur -51.217 16.3076 18.4207
rtibia 38.5935
rfoot -2.80888 -16.3913
rtoes -8.53576
lfemur -30.0963 -4.13416 -25.7983
ltibia 34.2753
lfoot -16.3676 1.43416
ltoes -21.6575
992
root -7.4894 15.3373 29.22 20.6803 -15.1392 -0.428061
lowerback -14.4957 -1.98031 -4.61674
upperback -4.62302 -2.00704 0.156407
thorax 3.38709 -1.00787 2.42474
lowerneck -17.2724 -9.24286 -6.3021
upperneck 16.3016 -12.809 8.30346
head 8.90142 -5.61242 2.11801
rclavicle -5.31749e-015 -1.90833e-014
rhumerus -35.9034 8.08509 -84.1116
rradius 33.3258
rwrist -7.69092
rhand -13.1947 -15.2505
rfingers 7.12502
rthumb 12.9055 -44.8315
lclavicle -5.31749e-015 -1.90833e-014
lhumerus -30.4245 -4.60311 82.0391
lradius 19.9881
lwrist 34.5116
lhand -31.3727 -0.278289
lfingers 7.12502
lthumb -4.64298 29.6508
rfemur -50.9861 16.3909 18.7505
rtibia 38.8753
rfoot -3.00612 -15.9532
rtoes -8.41403
lfemur -30.5396 -3.56686 -25.8148
ltibia 35.8198
lfoot -16.391 1.16163
ltoes -22.4794
993
root -7.48888 15.326 29.2839 20.5933 -15.4916 -0.561224
lowerback -14.3806 -1.82587 -4.08833
upperback -4.58918 -1.88415 0.185092
thorax 3.3384 -0.946994 2.18065
lowerneck -17.3054 -8.99366 -6.04672
upperneck 15.8615 -12.4399 8.10895
head 8.69761 -5.45383 2.07347
rclavicle 1.94312e-014 3.57812e-015
rhumerus -35.3146 8.00836 -83.9726
rradius 33.4847
rwrist -7.44624
rhand -13.468 -15.3184
rfingers 7.12502
rthumb 12.6421 -44.9158
lclavicle 1.94312e-014 3.57812e-015
lhumerus -30.9217 -2.74116 81.4311
lradius 18.6575
lwrist 32.7288
lhand -31.8496 0.625292
lfingers 7.12502
lthumb -5.10355 30.5438
rfemur -50.765 16.4426 19.0161
rtibia 39.1437
rfoot -3.25103 -15.5778
rtoes -8.41404
lfemur -31.0505 -2.95375 -25.8936
ltibia 37.403
lfoot -16.2643 0.758316
ltoes -23.3056
